<svg xmlns="http://www.w3.org/2000/svg" xmlns:xlink="http://www.w3.org/1999/xlink" version="1.1" id="Layer_1" x="0px" y="0px" width="100px" height="100px" viewBox="0 0 100 100" enable-background="new 0 0 100 100" xml:space="preserve">
<path fill="#000000" d="M50,11.562c-8.787,0-15.938,7.15-15.938,15.938v14.081c-4.151,0.103-7.5,3.521-7.5,7.729v29.506  c0,4.271,3.448,7.747,7.687,7.747h31.502c4.238,0,7.687-3.476,7.687-7.747V49.31c0-4.208-3.349-7.626-7.5-7.729V27.5  C65.938,18.713,58.787,11.562,50,11.562z M50,13.438c7.755,0,14.062,6.308,14.062,14.062v14.062h-5.625V27.5  c0-4.652-3.785-8.438-8.438-8.438s-8.438,3.785-8.438,8.438v14.062h-5.625V27.5C35.938,19.745,42.245,13.438,50,13.438z   M43.438,41.562V27.5c0-3.618,2.944-6.562,6.562-6.562s6.562,2.944,6.562,6.562v14.062H43.438z M71.562,49.31v29.506  c0,3.237-2.607,5.872-5.812,5.872H34.249c-3.204,0-5.812-2.635-5.812-5.872V49.31c0-3.237,2.607-5.872,5.812-5.872h31.502  C68.955,43.438,71.562,46.072,71.562,49.31z"/>
<ellipse fill="#000000" cx="40.625" cy="65.938" rx="1.875" ry="2.812"/>
<ellipse fill="#000000" cx="59.375" cy="65.938" rx="1.875" ry="2.812"/>
<path fill="#000000" d="M57.5,75.312h-15c-0.519,0-0.938,0.419-0.938,0.938s0.419,0.938,0.938,0.938h15  c0.519,0,0.938-0.419,0.938-0.938S58.019,75.312,57.5,75.312z"/>
</svg>