<svg xmlns="http://www.w3.org/2000/svg" xmlns:xlink="http://www.w3.org/1999/xlink" version="1.1" id="Layer_1" x="0px" y="0px" width="100px" height="100px" viewBox="0 0 100 100" enable-background="new 0 0 100 100" xml:space="preserve">
<path fill="#000000" d="M50.256,11.562c-8.787,0-15.938,7.15-15.938,15.938v14.081c-4.151,0.103-7.5,3.521-7.5,7.729v29.506  c0,4.271,3.448,7.747,7.687,7.747h31.501c4.239,0,7.687-3.476,7.687-7.747V49.31c0-4.208-3.349-7.626-7.5-7.729V27.5  C66.194,18.713,59.043,11.562,50.256,11.562z M50.256,13.438c7.754,0,14.062,6.308,14.062,14.062v14.062h-5.625V27.5  c0-4.652-3.785-8.438-8.438-8.438s-8.438,3.785-8.438,8.438v14.062h-5.625V27.5C36.194,19.745,42.502,13.438,50.256,13.438z   M43.694,41.562V27.5c0-3.618,2.944-6.562,6.562-6.562s6.562,2.944,6.562,6.562v14.062H43.694z M71.819,49.31v29.506  c0,3.237-2.607,5.872-5.812,5.872H34.506c-3.205,0-5.812-2.635-5.812-5.872V49.31c0-3.237,2.607-5.872,5.812-5.872h31.501  C69.211,43.438,71.819,46.072,71.819,49.31z"/>
<path fill="#000000" d="M42.756,65.938c0-0.238-0.026-0.465-0.062-0.687l-2.985-1.492c-0.425,0.515-0.703,1.292-0.703,2.179  c0,1.553,0.838,2.812,1.875,2.812S42.756,67.49,42.756,65.938z"/>
<path fill="#000000" d="M57.818,65.251c-0.036,0.222-0.062,0.448-0.062,0.687c0,1.553,0.838,2.812,1.875,2.812  s1.875-1.26,1.875-2.812c0-0.887-0.278-1.664-0.703-2.179L57.818,65.251z"/>
<path fill="#000000" d="M50.256,70.625c-4.653,0-8.438,3.785-8.438,8.438c0,0.519,0.419,0.938,0.938,0.938s0.938-0.419,0.938-0.938  c0-3.618,2.944-6.562,6.562-6.562s6.562,2.944,6.562,6.562c0,0.519,0.419,0.938,0.938,0.938s0.938-0.419,0.938-0.938  C58.694,74.41,54.909,70.625,50.256,70.625z"/>
</svg>