<svg xmlns="http://www.w3.org/2000/svg" xmlns:xlink="http://www.w3.org/1999/xlink" version="1.1" id="Layer_1" x="0px" y="0px" width="100px" height="100px" viewBox="0 0 100 100" enable-background="new 0 0 100 100" xml:space="preserve">
<path fill="#000000" d="M50.324,11.562c-8.787,0-15.938,7.15-15.938,15.938v14.081c-4.151,0.103-7.5,3.521-7.5,7.729v29.506  c0,4.271,3.447,7.747,7.687,7.747h31.502c4.238,0,7.687-3.476,7.687-7.747V49.31c0-4.208-3.35-7.626-7.5-7.729V27.5  C66.262,18.713,59.111,11.562,50.324,11.562z M50.324,13.438c7.754,0,14.062,6.308,14.062,14.062v14.062h-5.625V27.5  c0-4.652-3.785-8.438-8.438-8.438s-8.438,3.785-8.438,8.438v14.062h-5.625V27.5C36.262,19.745,42.569,13.438,50.324,13.438z   M43.762,41.562V27.5c0-3.618,2.944-6.562,6.562-6.562s6.562,2.944,6.562,6.562v14.062H43.762z M71.887,49.31v29.506  c0,3.237-2.607,5.872-5.812,5.872H34.573c-3.204,0-5.812-2.635-5.812-5.872V49.31c0-3.237,2.607-5.872,5.812-5.872h31.502  C69.279,43.438,71.887,46.072,71.887,49.31z"/>
<path fill="#000000" d="M40.949,63.125c-0.011,0-0.022,0.006-0.035,0.006c-0.011,0-0.021-0.006-0.033-0.006  c-1.034,0-1.875,1.258-1.875,2.812c0,1.553,0.841,2.812,1.875,2.812c0.012,0,0.022-0.006,0.033-0.006  c0.013,0,0.024,0.006,0.035,0.006c1.036,0,1.875-1.26,1.875-2.812C42.824,64.383,41.985,63.125,40.949,63.125z"/>
<path fill="#000000" d="M59.699,63.125c-0.011,0-0.022,0.006-0.035,0.006c-0.011,0-0.021-0.006-0.033-0.006  c-1.036,0-1.875,1.258-1.875,2.812c0,1.553,0.839,2.812,1.875,2.812c0.012,0,0.022-0.006,0.033-0.006  c0.013,0,0.024,0.006,0.035,0.006c1.036,0,1.875-1.26,1.875-2.812C61.574,64.383,60.735,63.125,59.699,63.125z"/>
<circle fill="#000000" cx="50.256" cy="74.375" r="3.75"/>
</svg>